<svg width="24" height="24" viewBox="0 0 24 24" fill="none" xmlns="http://www.w3.org/2000/svg">
<path d="M6.81572 3H6V11.9989H13.7184C14.9036 11.9989 16.0402 11.5249 16.8782 10.681C17.7162 9.83724 18.187 8.69278 18.187 7.49945C18.187 6.30612 17.7162 5.16167 16.8782 4.31786C16.0402 3.47405 14.9036 3 13.7184 3H6.81572ZM6.81572 3V3.4145M6.81572 3.4145L13.3154 3.41559C14.3928 3.41559 15.4261 3.84654 16.1879 4.61364C16.9498 5.38074 17.3778 6.42115 17.3778 7.506C17.3778 8.59084 16.9498 9.63126 16.1879 10.3984C15.4261 11.1655 14.3928 11.5964 13.3154 11.5964H6.81572M6.81572 3.4145V11.5964M6.81572 21H14.1247C15.4177 21 16.6577 20.4828 17.572 19.5622C18.4864 18.6416 19 17.3929 19 16.091C19 14.789 18.4864 13.5404 17.572 12.6197C16.6577 11.6991 15.4177 11.1819 14.1247 11.1819H6V20.9989L6.81572 21ZM6.81572 21V20.5964M6.81572 20.5964V11.5964M6.81572 20.5964L13.7217 20.5953C14.9068 20.5953 16.0434 20.1213 16.8814 19.2775C17.7194 18.4337 18.1902 17.2892 18.1902 16.0959C18.1902 14.9025 17.7194 13.7581 16.8814 12.9143C16.0434 12.0705 14.9068 11.5964 13.7217 11.5964H6.81572M7.62493 3.81917H12.906C13.8756 3.81917 14.8056 4.20703 15.4912 4.89742C16.1769 5.58781 16.5621 6.52418 16.5621 7.50055C16.5621 8.47691 16.1769 9.41328 15.4912 10.1037C14.8056 10.7941 13.8756 11.1819 12.906 11.1819H7.62493V3.81917ZM7.62493 12H13.3122C14.3896 12 15.4229 12.431 16.1847 13.1981C16.9465 13.9652 17.3745 15.0056 17.3745 16.0904C17.3745 17.1753 16.9465 18.2157 16.1847 18.9828C15.4229 19.7499 14.3896 20.1808 13.3122 20.1808H7.62493V12Z" stroke="#3A3D40" stroke-width="1.5" stroke-linejoin="round"/>
</svg>
