<svg width="24" height="24" viewBox="0 0 24 24" fill="none" xmlns="http://www.w3.org/2000/svg">
<path d="M8 18H21" stroke="#B5BBC1" stroke-width="2" stroke-linecap="round" stroke-linejoin="round"/>
<path d="M8 12H21" stroke="#B5BBC1" stroke-width="2" stroke-linecap="round" stroke-linejoin="round"/>
<path d="M8 6H21" stroke="#B5BBC1" stroke-width="2" stroke-linecap="round" stroke-linejoin="round"/>
<path d="M3.14837 19.032C2.93024 19.032 2.7354 18.9945 2.56386 18.9193C2.39338 18.8441 2.25837 18.7398 2.15883 18.6064C2.06036 18.4719 2.00741 18.3162 2 18.1394H2.49874C2.50509 18.2358 2.53739 18.3194 2.59563 18.3904C2.65492 18.4602 2.73222 18.5142 2.82752 18.5524C2.92282 18.5905 3.02871 18.6095 3.14519 18.6095C3.27332 18.6095 3.38662 18.5873 3.48509 18.5428C3.58463 18.4984 3.66246 18.4364 3.71858 18.357C3.7747 18.2765 3.80276 18.1839 3.80276 18.079C3.80276 17.97 3.7747 17.8741 3.71858 17.7916C3.66352 17.7079 3.58251 17.6423 3.47556 17.5946C3.36968 17.547 3.24155 17.5231 3.09119 17.5231H2.81641V17.1229H3.09119C3.2119 17.1229 3.31779 17.1012 3.40885 17.0577C3.50098 17.0143 3.57298 16.954 3.62487 16.8767C3.67675 16.7983 3.7027 16.7067 3.7027 16.6019C3.7027 16.5013 3.67993 16.4139 3.6344 16.3398C3.58993 16.2646 3.52639 16.2059 3.4438 16.1635C3.36226 16.1212 3.2659 16.1 3.15472 16.1C3.04883 16.1 2.94983 16.1196 2.8577 16.1587C2.76664 16.1969 2.69251 16.2519 2.63533 16.3239C2.57815 16.3949 2.54745 16.4801 2.54321 16.5797H2.0683C2.07359 16.4039 2.12548 16.2493 2.22396 16.1159C2.32349 15.9824 2.45479 15.8781 2.61786 15.803C2.78093 15.7278 2.962 15.6902 3.16107 15.6902C3.36968 15.6902 3.54969 15.731 3.70111 15.8125C3.85359 15.893 3.97113 16.0004 4.05372 16.1349C4.13737 16.2694 4.17867 16.4166 4.17761 16.5765C4.17867 16.7586 4.12784 16.9132 4.02513 17.0403C3.92348 17.1673 3.78794 17.2526 3.61852 17.296V17.3214C3.83453 17.3542 4.00183 17.44 4.12043 17.5787C4.24008 17.7174 4.29938 17.8895 4.29832 18.0949C4.29938 18.2739 4.24961 18.4343 4.14902 18.5762C4.04948 18.7181 3.91342 18.8298 3.74082 18.9113C3.56822 18.9918 3.37073 19.032 3.14837 19.032Z" fill="#B5BBC1"/>
<path d="M2.0857 13.6201V13.2644L3.18641 12.1239C3.30395 12 3.40084 11.8915 3.47708 11.7983C3.55438 11.7041 3.61209 11.6146 3.65021 11.5299C3.68833 11.4452 3.70739 11.3552 3.70739 11.2599C3.70739 11.1519 3.68197 11.0587 3.63115 10.9803C3.58032 10.9009 3.51096 10.84 3.42308 10.7977C3.33519 10.7543 3.23618 10.7325 3.12606 10.7325C3.00958 10.7325 2.90793 10.7564 2.8211 10.804C2.73427 10.8517 2.66756 10.9189 2.62097 11.0057C2.57437 11.0926 2.55108 11.1942 2.55108 11.3107H2.08252C2.08252 11.1127 2.12805 10.9396 2.21912 10.7913C2.31018 10.6431 2.43513 10.5282 2.59396 10.4466C2.7528 10.3641 2.93334 10.3228 3.13559 10.3228C3.33995 10.3228 3.51996 10.3635 3.67562 10.4451C3.83234 10.5255 3.95464 10.6357 4.04253 10.7754C4.13041 10.9141 4.17436 11.0709 4.17436 11.2456C4.17436 11.3663 4.15159 11.4844 4.10606 11.5998C4.06159 11.7152 3.98376 11.8439 3.87258 11.9857C3.76139 12.1266 3.60679 12.2976 3.40878 12.4988L2.76233 13.1754V13.1992H4.22677V13.6201H2.0857Z" fill="#B5BBC1"/>
<path d="M3.63421 5V8.25291H3.14183V5.49238H3.12277L2.34448 6.00065V5.5305L3.15612 5H3.63421Z" fill="#B5BBC1"/>
</svg>
